<?xml version="1.0" standalone="no"?>
<!DOCTYPE svg PUBLIC "-//W3C//DTD SVG 1.1//EN" "http://www.w3.org/Graphics/SVG/1.1/DTD/svg11.dtd">
<svg  viewBox="0 0 1024 1024" version="1.1" xmlns="http://www.w3.org/2000/svg" p-id="1243" xmlns:xlink="http://www.w3.org/1999/xlink" width="200" height="200">

<path d="M1000.699 961.682L790.805 751.788c71.71-79.297 115.604-184.244 115.604-299.306 0-246.02-200.14-446.34-446.34-446.34S13.727 206.281 13.727 452.301s200.14 446.34 446.34 446.34c107.296 0 205.74-38.114 282.87-101.335l210.977 210.978c12.825 12.825 33.778 12.825 46.784 0 12.824-12.825 12.824-33.778 0-46.603zM78.394 452.302c0-210.436 171.239-381.675 381.674-381.675S841.743 241.866 841.743 452.3 670.504 833.976 460.068 833.976 78.394 662.737 78.394 452.3z">

</path>
</svg>